<svg xmlns="http://www.w3.org/2000/svg" version="1.1" xmlns:xlink="http://www.w3.org/1999/xlink" xmlns:svgjs="http://svgjs.dev/svgjs" width="2000" height="292" viewBox="0 0 2000 292"><g transform="matrix(1,0,0,1,-1.2121212121212466,-0.2658257791690346)"><svg viewBox="0 0 396 58" data-background-color="#ffffff" preserveAspectRatio="xMidYMid meet" height="292" width="2000" xmlns="http://www.w3.org/2000/svg" xmlns:xlink="http://www.w3.org/1999/xlink"><g id="tight-bounds" transform="matrix(1,0,0,1,0.2400000000000091,0.052801010930835446)"><svg viewBox="0 0 395.52 57.89439797813834" height="57.89439797813834" width="395.52"><g><svg viewBox="0 0 477.42386295900076 69.88310863270776" height="57.89439797813834" width="395.52"><g transform="matrix(1,0,0,1,0,9.658229919571045)"><svg viewBox="0 0 395.52 50.56664879356567" height="50.56664879356567" width="395.52"><g id="textblocktransform"><svg viewBox="0 0 395.52 50.56664879356567" height="50.56664879356567" width="395.52" id="textblock"><g><svg viewBox="0 0 395.52 50.56664879356567" height="50.56664879356567" width="395.52"><g transform="matrix(1,0,0,1,0,0)"><svg width="395.52" viewBox="4.3 -37.85 298.37 38.15" height="50.56664879356567" data-palette-color="#80796c"><path d="M17-5L18.5-1.55Q17.45-0.65 15.9-0.18 14.35 0.3 12.7 0.3L12.7 0.3Q8.7 0.3 6.5-1.85 4.3-4 4.3-8L4.3-8 4.3-32.3 9.1-32.3 9.1-26.5 16.7-26.5 16.7-22.55 9.1-22.55 9.1-8.2Q9.1-6.05 10.18-4.9 11.25-3.75 13.25-3.75L13.25-3.75Q15.45-3.75 17-5L17-5ZM35.35-3.9Q40.1-3.9 43-7.1L43-7.1 45.6-4Q43.85-1.9 41.17-0.8 38.5 0.3 35.2 0.3L35.2 0.3Q31 0.3 27.75-1.43 24.5-3.15 22.72-6.25 20.95-9.35 20.95-13.25L20.95-13.25Q20.95-17.1 22.67-20.2 24.4-23.3 27.42-25.03 30.45-26.75 34.25-26.75L34.25-26.75Q37.85-26.75 40.8-25.13 43.75-23.5 45.5-20.55 47.25-17.6 47.3-13.75L47.3-13.75 26.25-9.65Q27.25-6.9 29.62-5.4 32-3.9 35.35-3.9L35.35-3.9ZM34.25-22.7Q31.75-22.7 29.77-21.55 27.8-20.4 26.7-18.32 25.6-16.25 25.6-13.5L25.6-13.5 25.6-13 42.55-16.2Q41.9-19.1 39.65-20.9 37.4-22.7 34.25-22.7L34.25-22.7ZM65.55 0.3Q61.5 0.3 58.32-1.45 55.15-3.2 53.35-6.28 51.55-9.35 51.55-13.25L51.55-13.25Q51.55-17.15 53.35-20.23 55.15-23.3 58.32-25.03 61.5-26.75 65.55-26.75L65.55-26.75Q69.15-26.75 71.97-25.3 74.8-23.85 76.35-21.1L76.35-21.1 72.7-18.75Q71.45-20.65 69.6-21.6 67.75-22.55 65.5-22.55L65.5-22.55Q62.9-22.55 60.82-21.4 58.75-20.25 57.57-18.13 56.4-16 56.4-13.25L56.4-13.25Q56.4-10.45 57.57-8.33 58.75-6.2 60.82-5.05 62.9-3.9 65.5-3.9L65.5-3.9Q67.75-3.9 69.6-4.85 71.45-5.8 72.7-7.7L72.7-7.7 76.35-5.4Q74.8-2.65 71.97-1.18 69.15 0.3 65.55 0.3L65.55 0.3ZM96.34-26.75Q101.39-26.75 104.37-23.83 107.34-20.9 107.34-15.25L107.34-15.25 107.34 0 102.54 0 102.54-14.7Q102.54-18.55 100.69-20.5 98.84-22.45 95.39-22.45L95.39-22.45Q91.49-22.45 89.24-20.18 86.99-17.9 86.99-13.65L86.99-13.65 86.99 0 82.19 0 82.19-37.1 86.99-37.1 86.99-22.75Q88.49-24.65 90.92-25.7 93.34-26.75 96.34-26.75L96.34-26.75ZM138.69-33.45Q134.39-33.45 134.39-28.8L134.39-28.8 134.39-26.5 142.14-26.5 142.14-22.55 134.49-22.55 134.49 0 129.69 0 129.69-28.85Q129.69-32.8 131.99-35.1 134.29-37.4 138.44-37.4L138.44-37.4Q140.04-37.4 141.44-37 142.84-36.6 143.84-35.85L143.84-35.85 142.39-32.2Q140.74-33.45 138.69-33.45L138.69-33.45ZM155.24-22.05Q156.49-24.35 158.94-25.55 161.39-26.75 164.89-26.75L164.89-26.75 164.89-22.1Q164.49-22.15 163.79-22.15L163.79-22.15Q159.89-22.15 157.66-19.83 155.44-17.5 155.44-13.2L155.44-13.2 155.44 0 150.64 0 150.64-26.5 155.24-26.5 155.24-22.05ZM170.78 0L170.78-26.5 175.58-26.5 175.58 0 170.78 0ZM173.18-31.6Q171.78-31.6 170.86-32.5 169.93-33.4 169.93-34.7L169.93-34.7Q169.93-36 170.86-36.93 171.78-37.85 173.18-37.85L173.18-37.85Q174.58-37.85 175.51-36.98 176.43-36.1 176.43-34.8L176.43-34.8Q176.43-33.45 175.51-32.52 174.58-31.6 173.18-31.6L173.18-31.6ZM196.68-3.9Q201.43-3.9 204.33-7.1L204.33-7.1 206.93-4Q205.18-1.9 202.51-0.8 199.83 0.3 196.53 0.3L196.53 0.3Q192.33 0.3 189.08-1.43 185.83-3.15 184.06-6.25 182.28-9.35 182.28-13.25L182.28-13.25Q182.28-17.1 184.01-20.2 185.73-23.3 188.76-25.03 191.78-26.75 195.58-26.75L195.58-26.75Q199.18-26.75 202.13-25.13 205.08-23.5 206.83-20.55 208.58-17.6 208.63-13.75L208.63-13.75 187.58-9.65Q188.58-6.9 190.96-5.4 193.33-3.9 196.68-3.9L196.68-3.9ZM195.58-22.7Q193.08-22.7 191.11-21.55 189.13-20.4 188.03-18.32 186.93-16.25 186.93-13.5L186.93-13.5 186.93-13 203.88-16.2Q203.23-19.1 200.98-20.9 198.73-22.7 195.58-22.7L195.58-22.7ZM229.48-26.75Q234.53-26.75 237.5-23.83 240.48-20.9 240.48-15.25L240.48-15.25 240.48 0 235.68 0 235.68-14.7Q235.68-18.55 233.83-20.5 231.98-22.45 228.53-22.45L228.53-22.45Q224.63-22.45 222.38-20.18 220.13-17.9 220.13-13.65L220.13-13.65 220.13 0 215.33 0 215.33-26.5 219.93-26.5 219.93-22.5Q221.38-24.55 223.85-25.65 226.33-26.75 229.48-26.75L229.48-26.75ZM269.73-37.1L274.53-37.1 274.53 0 269.93 0 269.93-4.2Q268.33-2 265.88-0.85 263.43 0.3 260.48 0.3L260.48 0.3Q256.63 0.3 253.58-1.4 250.53-3.1 248.8-6.18 247.08-9.25 247.08-13.25L247.08-13.25Q247.08-17.25 248.8-20.3 250.53-23.35 253.58-25.05 256.63-26.75 260.48-26.75L260.48-26.75Q263.33-26.75 265.73-25.68 268.13-24.6 269.73-22.5L269.73-22.5 269.73-37.1ZM260.88-3.9Q263.38-3.9 265.43-5.08 267.48-6.25 268.63-8.38 269.78-10.5 269.78-13.25L269.78-13.25Q269.78-16 268.63-18.13 267.48-20.25 265.43-21.4 263.38-22.55 260.88-22.55L260.88-22.55Q258.33-22.55 256.3-21.4 254.28-20.25 253.1-18.13 251.93-16 251.93-13.25L251.93-13.25Q251.93-10.5 253.1-8.38 254.28-6.25 256.3-5.08 258.33-3.9 260.88-3.9L260.88-3.9ZM291.22 0.3Q287.97 0.3 284.97-0.58 281.97-1.45 280.27-2.8L280.27-2.8 282.27-6.6Q284.02-5.35 286.52-4.6 289.02-3.85 291.57-3.85L291.57-3.85Q297.87-3.85 297.87-7.45L297.87-7.45Q297.87-8.65 297.02-9.35 296.17-10.05 294.9-10.38 293.62-10.7 291.27-11.1L291.27-11.1Q288.07-11.6 286.05-12.25 284.02-12.9 282.57-14.45 281.12-16 281.12-18.8L281.12-18.8Q281.12-22.4 284.12-24.58 287.12-26.75 292.17-26.75L292.17-26.75Q294.82-26.75 297.47-26.1 300.12-25.45 301.82-24.35L301.82-24.35 299.77-20.55Q296.52-22.65 292.12-22.65L292.12-22.65Q289.07-22.65 287.47-21.65 285.87-20.65 285.87-19L285.87-19Q285.87-17.7 286.77-16.95 287.67-16.2 289-15.85 290.32-15.5 292.72-15.05L292.72-15.05Q295.92-14.5 297.9-13.88 299.87-13.25 301.27-11.75 302.67-10.25 302.67-7.55L302.67-7.55Q302.67-3.95 299.6-1.83 296.52 0.3 291.22 0.3L291.22 0.3Z" opacity="1" transform="matrix(1,0,0,1,0,0)" fill="#80796c" class="wordmark-text-0" data-fill-palette-color="primary" id="text-0"></path></svg></g></svg></g></svg></g></svg></g><g transform="matrix(1,0,0,1,407.4575721805898,0)"><svg viewBox="0 0 69.96629077841098 69.88310863270776" height="69.88310863270776" width="69.96629077841098"><g><svg xmlns="http://www.w3.org/2000/svg" xmlns:xlink="http://www.w3.org/1999/xlink" version="1.1" x="0" y="0" viewBox="5 5.053000000000001 90 89.893" enable-background="new 0 0 100 100" xml:space="preserve" height="69.88310863270776" width="69.96629077841098" class="icon-icon-0" data-fill-palette-color="accent" id="icon-0"><g fill="#6d9985" data-fill-palette-color="accent"><path d="M22.749 91.928c0 1.667-1.351 3.018-3.018 3.018H8.018C6.351 94.946 5 93.595 5 91.928V80.215c0-1.667 1.351-3.018 3.018-3.018h11.713c1.667 0 3.018 1.351 3.018 3.018V91.928z" fill="#6d9985" data-fill-palette-color="accent"></path><path d="M95 65.807c0 4.789-3.882 8.671-8.671 8.671H33.946c-4.789 0-8.671-3.882-8.671-8.671V13.724c0-4.789 3.882-8.671 8.671-8.671h52.383c4.789 0 8.671 3.882 8.671 8.671V65.807zM84.347 17.733c0-1.119-0.907-2.026-2.026-2.026H37.955c-1.119 0-2.026 0.907-2.026 2.026v44.065c0 1.119 0.907 2.026 2.026 2.026h44.366c1.119 0 2.026-0.907 2.026-2.026V17.733z" fill="#6d9985" data-fill-palette-color="accent"></path></g></svg></g></svg></g></svg></g><defs></defs></svg><rect width="395.52" height="57.89439797813834" fill="none" stroke="none" visibility="hidden"></rect></g></svg></g></svg>