<?xml version="1.0" encoding="UTF-8"?>
<svg xmlns="http://www.w3.org/2000/svg" xmlns:xlink="http://www.w3.org/1999/xlink" width="150px" height="22px" viewBox="0 0 150 22" version="1.1">
<defs>
<clipPath id="clip1">
  <path d="M 0.238281 3.035156 L 123.960938 3.035156 L 123.960938 18.925781 L 0.238281 18.925781 Z M 0.238281 3.035156 "/>
</clipPath>
<clipPath id="clip2">
  <path d="M 127.695312 17 L 133 17 L 133 21.960938 L 127.695312 21.960938 Z M 127.695312 17 "/>
</clipPath>
<clipPath id="clip3">
  <path d="M 132 0 L 149.582031 0 L 149.582031 17 L 132 17 Z M 132 0 "/>
</clipPath>
</defs>
<g id="surface1">
<g clip-path="url(#clip1)" clip-rule="nonzero">
<path style=" stroke:none;fill-rule:nonzero;fill:rgb(50.196078%,47.45098%,42.352941%);fill-opacity:1;" d="M 5.507812 16.71875 L 6.132812 18.15625 C 5.839844 18.40625 5.480469 18.59375 5.054688 18.726562 C 4.625 18.859375 4.183594 18.925781 3.726562 18.925781 C 2.621094 18.925781 1.765625 18.625 1.15625 18.03125 C 0.546875 17.433594 0.242188 16.578125 0.242188 15.46875 L 0.242188 5.347656 L 2.234375 5.347656 L 2.234375 7.761719 L 5.386719 7.761719 L 5.386719 9.40625 L 2.234375 9.40625 L 2.234375 15.382812 C 2.234375 15.980469 2.382812 16.441406 2.683594 16.757812 C 2.976562 17.078125 3.402344 17.238281 3.953125 17.238281 C 4.5625 17.238281 5.082031 17.066406 5.507812 16.71875 Z M 13.117188 17.175781 C 14.429688 17.175781 15.488281 16.730469 16.289062 15.84375 L 17.367188 17.132812 C 16.882812 17.71875 16.273438 18.160156 15.53125 18.464844 C 14.792969 18.773438 13.96875 18.925781 13.054688 18.925781 C 11.894531 18.925781 10.863281 18.683594 9.964844 18.203125 C 9.066406 17.726562 8.375 17.058594 7.882812 16.195312 C 7.390625 15.335938 7.148438 14.363281 7.148438 13.28125 C 7.148438 12.210938 7.386719 11.246094 7.859375 10.386719 C 8.339844 9.527344 8.996094 8.855469 9.828125 8.375 C 10.667969 7.898438 11.613281 7.660156 12.660156 7.660156 C 13.65625 7.660156 14.5625 7.882812 15.378906 8.332031 C 16.191406 8.785156 16.84375 9.421875 17.328125 10.242188 C 17.808594 11.058594 18.058594 12.003906 18.074219 13.074219 L 9.34375 14.78125 C 9.621094 15.542969 10.085938 16.132812 10.742188 16.550781 C 11.398438 16.96875 12.191406 17.175781 13.117188 17.175781 Z M 12.660156 9.34375 C 11.96875 9.34375 11.351562 9.503906 10.804688 9.824219 C 10.257812 10.144531 9.835938 10.59375 9.53125 11.167969 C 9.226562 11.746094 9.074219 12.414062 9.074219 13.175781 L 9.074219 13.386719 L 16.101562 12.050781 C 15.921875 11.246094 15.523438 10.59375 14.902344 10.09375 C 14.277344 9.59375 13.53125 9.34375 12.660156 9.34375 Z M 25.640625 18.925781 C 24.519531 18.925781 23.519531 18.683594 22.640625 18.195312 C 21.765625 17.710938 21.078125 17.039062 20.582031 16.183594 C 20.082031 15.332031 19.835938 14.363281 19.835938 13.28125 C 19.835938 12.199219 20.082031 11.230469 20.582031 10.375 C 21.078125 9.519531 21.765625 8.855469 22.640625 8.375 C 23.519531 7.898438 24.519531 7.660156 25.640625 7.660156 C 26.632812 7.660156 27.523438 7.859375 28.300781 8.261719 C 29.082031 8.664062 29.6875 9.246094 30.117188 10.011719 L 28.605469 10.992188 C 28.257812 10.460938 27.828125 10.066406 27.320312 9.804688 C 26.808594 9.539062 26.242188 9.40625 25.617188 9.40625 C 24.898438 9.40625 24.253906 9.566406 23.679688 9.886719 C 23.105469 10.207031 22.65625 10.660156 22.332031 11.25 C 22.007812 11.839844 21.84375 12.519531 21.84375 13.28125 C 21.84375 14.058594 22.007812 14.742188 22.332031 15.332031 C 22.65625 15.921875 23.105469 16.378906 23.679688 16.695312 C 24.253906 17.015625 24.898438 17.175781 25.617188 17.175781 C 26.242188 17.175781 26.808594 17.042969 27.320312 16.78125 C 27.828125 16.515625 28.257812 16.121094 28.605469 15.59375 L 30.117188 16.550781 C 29.6875 17.3125 29.082031 17.898438 28.300781 18.308594 C 27.523438 18.71875 26.632812 18.925781 25.640625 18.925781 Z M 38.40625 7.660156 C 39.800781 7.660156 40.910156 8.0625 41.734375 8.875 C 42.554688 9.6875 42.964844 10.878906 42.964844 12.449219 L 42.964844 18.800781 L 40.976562 18.800781 L 40.976562 12.675781 C 40.976562 11.609375 40.71875 10.804688 40.210938 10.261719 C 39.699219 9.71875 38.964844 9.449219 38.011719 9.449219 C 36.933594 9.449219 36.082031 9.765625 35.460938 10.394531 C 34.839844 11.027344 34.527344 11.933594 34.527344 13.113281 L 34.527344 18.800781 L 32.539062 18.800781 L 32.539062 3.347656 L 34.527344 3.347656 L 34.527344 9.324219 C 34.945312 8.796875 35.488281 8.386719 36.160156 8.09375 C 36.828125 7.804688 37.578125 7.660156 38.40625 7.660156 Z M 55.964844 4.867188 C 54.777344 4.867188 54.183594 5.511719 54.183594 6.804688 L 54.183594 7.761719 L 57.394531 7.761719 L 57.394531 9.40625 L 54.222656 9.40625 L 54.222656 18.800781 L 52.234375 18.800781 L 52.234375 6.785156 C 52.234375 5.6875 52.550781 4.820312 53.1875 4.179688 C 53.824219 3.542969 54.714844 3.222656 55.859375 3.222656 C 56.304688 3.222656 56.71875 3.277344 57.105469 3.390625 C 57.492188 3.5 57.824219 3.660156 58.101562 3.867188 L 57.5 5.386719 C 57.042969 5.042969 56.53125 4.867188 55.964844 4.867188 Z M 62.828125 9.617188 C 63.171875 8.976562 63.683594 8.492188 64.359375 8.15625 C 65.039062 7.824219 65.859375 7.660156 66.828125 7.660156 L 66.828125 9.59375 C 66.71875 9.582031 66.566406 9.574219 66.371094 9.574219 C 65.292969 9.574219 64.445312 9.894531 63.828125 10.539062 C 63.214844 11.1875 62.910156 12.109375 62.910156 13.300781 L 62.910156 18.800781 L 60.917969 18.800781 L 60.917969 7.761719 L 62.828125 7.761719 Z M 69.269531 18.800781 L 69.269531 7.761719 L 71.261719 7.761719 L 71.261719 18.800781 Z M 70.265625 5.636719 C 69.878906 5.636719 69.558594 5.511719 69.304688 5.261719 C 69.046875 5.011719 68.917969 4.707031 68.917969 4.347656 C 68.917969 3.984375 69.046875 3.675781 69.304688 3.417969 C 69.558594 3.164062 69.878906 3.035156 70.265625 3.035156 C 70.652344 3.035156 70.972656 3.15625 71.230469 3.398438 C 71.484375 3.640625 71.613281 3.945312 71.613281 4.304688 C 71.613281 4.679688 71.484375 4.996094 71.230469 5.253906 C 70.972656 5.511719 70.652344 5.636719 70.265625 5.636719 Z M 80.007812 17.175781 C 81.320312 17.175781 82.378906 16.730469 83.179688 15.84375 L 84.257812 17.132812 C 83.773438 17.71875 83.164062 18.160156 82.425781 18.464844 C 81.683594 18.773438 80.859375 18.925781 79.945312 18.925781 C 78.785156 18.925781 77.753906 18.683594 76.855469 18.203125 C 75.957031 17.726562 75.265625 17.058594 74.777344 16.195312 C 74.285156 15.335938 74.039062 14.363281 74.039062 13.28125 C 74.039062 12.210938 74.277344 11.246094 74.753906 10.386719 C 75.230469 9.527344 75.886719 8.855469 76.726562 8.375 C 77.558594 7.898438 78.503906 7.660156 79.550781 7.660156 C 80.546875 7.660156 81.453125 7.882812 82.269531 8.332031 C 83.082031 8.785156 83.734375 9.421875 84.21875 10.242188 C 84.699219 11.058594 84.949219 12.003906 84.964844 13.074219 L 76.234375 14.78125 C 76.511719 15.542969 76.980469 16.132812 77.636719 16.550781 C 78.292969 16.96875 79.082031 17.175781 80.007812 17.175781 Z M 79.550781 9.34375 C 78.859375 9.34375 78.242188 9.503906 77.699219 9.824219 C 77.152344 10.144531 76.726562 10.59375 76.421875 11.167969 C 76.117188 11.746094 75.964844 12.414062 75.964844 13.175781 L 75.964844 13.386719 L 82.992188 12.050781 C 82.8125 11.246094 82.414062 10.59375 81.792969 10.09375 C 81.167969 9.59375 80.421875 9.34375 79.550781 9.34375 Z M 93.609375 7.660156 C 95.003906 7.660156 96.113281 8.0625 96.933594 8.875 C 97.757812 9.6875 98.167969 10.878906 98.167969 12.449219 L 98.167969 18.800781 L 96.179688 18.800781 L 96.179688 12.675781 C 96.179688 11.609375 95.921875 10.804688 95.410156 10.261719 C 94.898438 9.71875 94.167969 9.449219 93.214844 9.449219 C 92.136719 9.449219 91.285156 9.765625 90.664062 10.394531 C 90.042969 11.027344 89.730469 11.933594 89.730469 13.113281 L 89.730469 18.800781 L 87.742188 18.800781 L 87.742188 7.761719 L 89.648438 7.761719 L 89.648438 9.429688 C 90.050781 8.859375 90.589844 8.421875 91.273438 8.117188 C 91.960938 7.8125 92.738281 7.660156 93.609375 7.660156 Z M 110.296875 3.347656 L 112.285156 3.347656 L 112.285156 18.800781 L 110.378906 18.800781 L 110.378906 17.050781 C 109.9375 17.660156 109.378906 18.125 108.699219 18.445312 C 108.023438 18.765625 107.277344 18.925781 106.460938 18.925781 C 105.398438 18.925781 104.441406 18.6875 103.601562 18.21875 C 102.757812 17.746094 102.097656 17.082031 101.617188 16.226562 C 101.144531 15.375 100.90625 14.390625 100.90625 13.28125 C 100.90625 12.171875 101.144531 11.191406 101.617188 10.34375 C 102.097656 9.496094 102.757812 8.839844 103.601562 8.367188 C 104.441406 7.894531 105.398438 7.660156 106.460938 7.660156 C 107.25 7.660156 107.972656 7.808594 108.636719 8.105469 C 109.300781 8.402344 109.855469 8.84375 110.296875 9.429688 Z M 106.628906 17.175781 C 107.316406 17.175781 107.945312 17.011719 108.511719 16.683594 C 109.082031 16.359375 109.523438 15.902344 109.839844 15.308594 C 110.15625 14.722656 110.316406 14.042969 110.316406 13.28125 C 110.316406 12.519531 110.15625 11.839844 109.839844 11.25 C 109.523438 10.660156 109.082031 10.207031 108.511719 9.886719 C 107.945312 9.566406 107.316406 9.40625 106.628906 9.40625 C 105.921875 9.40625 105.289062 9.566406 104.726562 9.886719 C 104.167969 10.207031 103.726562 10.660156 103.402344 11.25 C 103.078125 11.839844 102.917969 12.519531 102.917969 13.28125 C 102.917969 14.042969 103.078125 14.722656 103.402344 15.308594 C 103.726562 15.902344 104.167969 16.359375 104.726562 16.683594 C 105.289062 17.011719 105.921875 17.175781 106.628906 17.175781 Z M 119.207031 18.925781 C 118.308594 18.925781 117.445312 18.804688 116.613281 18.558594 C 115.785156 18.316406 115.136719 18.007812 114.667969 17.632812 L 115.496094 16.050781 C 115.980469 16.398438 116.566406 16.675781 117.257812 16.882812 C 117.949219 17.09375 118.648438 17.195312 119.351562 17.195312 C 121.09375 17.195312 121.964844 16.695312 121.964844 15.695312 C 121.964844 15.363281 121.847656 15.101562 121.613281 14.90625 C 121.375 14.710938 121.082031 14.566406 120.730469 14.476562 C 120.378906 14.386719 119.875 14.289062 119.226562 14.175781 C 118.34375 14.039062 117.621094 13.878906 117.0625 13.699219 C 116.5 13.515625 116.019531 13.210938 115.621094 12.78125 C 115.21875 12.351562 115.019531 11.746094 115.019531 10.96875 C 115.019531 9.96875 115.433594 9.167969 116.261719 8.5625 C 117.09375 7.960938 118.203125 7.660156 119.601562 7.660156 C 120.332031 7.660156 121.066406 7.75 121.796875 7.929688 C 122.53125 8.109375 123.132812 8.351562 123.601562 8.65625 L 122.75 10.242188 C 121.851562 9.65625 120.796875 9.367188 119.578125 9.367188 C 118.738281 9.367188 118.09375 9.503906 117.652344 9.78125 C 117.210938 10.058594 116.988281 10.429688 116.988281 10.886719 C 116.988281 11.246094 117.113281 11.53125 117.363281 11.738281 C 117.609375 11.949219 117.917969 12.101562 118.285156 12.199219 C 118.652344 12.296875 119.164062 12.40625 119.828125 12.53125 C 120.714844 12.683594 121.429688 12.847656 121.976562 13.019531 C 122.519531 13.195312 122.988281 13.488281 123.375 13.90625 C 123.761719 14.324219 123.953125 14.90625 123.953125 15.65625 C 123.953125 16.65625 123.53125 17.449219 122.679688 18.039062 C 121.828125 18.628906 120.671875 18.925781 119.207031 18.925781 Z M 119.207031 18.925781 "/>
</g>
<g clip-path="url(#clip2)" clip-rule="nonzero">
<path style=" stroke:none;fill-rule:nonzero;fill:rgb(42.745098%,60%,52.156863%);fill-opacity:1;" d="M 132.011719 21.222656 C 132.011719 21.628906 131.683594 21.960938 131.277344 21.960938 L 128.429688 21.960938 C 128.023438 21.960938 127.695312 21.628906 127.695312 21.222656 L 127.695312 18.359375 C 127.695312 17.953125 128.023438 17.625 128.429688 17.625 L 131.277344 17.625 C 131.683594 17.625 132.011719 17.953125 132.011719 18.359375 Z M 132.011719 21.222656 "/>
</g>
<g clip-path="url(#clip3)" clip-rule="nonzero">
<path style=" stroke:none;fill-rule:nonzero;fill:rgb(42.745098%,60%,52.156863%);fill-opacity:1;" d="M 149.582031 14.839844 C 149.582031 16.011719 148.636719 16.960938 147.472656 16.960938 L 134.734375 16.960938 C 133.570312 16.960938 132.625 16.011719 132.625 14.839844 L 132.625 2.117188 C 132.625 0.949219 133.570312 0 134.734375 0 L 147.472656 0 C 148.636719 0 149.582031 0.949219 149.582031 2.117188 Z M 146.988281 3.097656 C 146.988281 2.824219 146.769531 2.601562 146.496094 2.601562 L 135.707031 2.601562 C 135.4375 2.601562 135.214844 2.824219 135.214844 3.097656 L 135.214844 13.863281 C 135.214844 14.136719 135.4375 14.355469 135.707031 14.355469 L 146.496094 14.355469 C 146.769531 14.355469 146.988281 14.136719 146.988281 13.863281 Z M 146.988281 3.097656 "/>
</g>
</g>
</svg>
