<svg xmlns="http://www.w3.org/2000/svg" version="1.1" xmlns:xlink="http://www.w3.org/1999/xlink" xmlns:svgjs="http://svgjs.dev/svgjs" width="128" height="128" viewBox="0 0 128 128"><g transform="matrix(0.8046875,0,0,0.8046875,12.760752631578946,12.699214847894723)"><svg viewBox="0 0 95 95" data-background-color="#ffffff" preserveAspectRatio="xMidYMid meet" height="128" width="128" xmlns="http://www.w3.org/2000/svg" xmlns:xlink="http://www.w3.org/1999/xlink"><g id="tight-bounds" transform="matrix(1,0,0,1,-0.24049999999999727,-0.18374184999998988)"><svg viewBox="0 0 95.481 95.3674837" height="95.3674837" width="95.481"><g><svg viewBox="0 0 95.481 95.3674837" height="95.3674837" width="95.481"><g><svg viewBox="0 0 95.481 95.3674837" height="95.3674837" width="95.481"><g id="textblocktransform"><svg viewBox="0 0 95.481 95.3674837" height="95.3674837" width="95.481" id="textblock"><g><svg viewBox="0 0 95.481 95.3674837" height="95.3674837" width="95.481"><g><svg viewBox="0 0 95.481 95.3674837" height="95.3674837" width="95.481"><g><svg xmlns="http://www.w3.org/2000/svg" xmlns:xlink="http://www.w3.org/1999/xlink" version="1.1" x="0" y="0" viewBox="5 5.053000000000001 90 89.893" enable-background="new 0 0 100 100" xml:space="preserve" height="95.3674837" width="95.481" class="icon-icon-0" data-fill-palette-color="accent" id="icon-0"><g fill="#6d9985" data-fill-palette-color="accent"><path d="M22.749 91.928c0 1.667-1.351 3.018-3.018 3.018H8.018C6.351 94.946 5 93.595 5 91.928V80.215c0-1.667 1.351-3.018 3.018-3.018h11.713c1.667 0 3.018 1.351 3.018 3.018V91.928z" fill="#6d9985" data-fill-palette-color="accent"></path><path d="M95 65.807c0 4.789-3.882 8.671-8.671 8.671H33.946c-4.789 0-8.671-3.882-8.671-8.671V13.724c0-4.789 3.882-8.671 8.671-8.671h52.383c4.789 0 8.671 3.882 8.671 8.671V65.807zM84.347 17.733c0-1.119-0.907-2.026-2.026-2.026H37.955c-1.119 0-2.026 0.907-2.026 2.026v44.065c0 1.119 0.907 2.026 2.026 2.026h44.366c1.119 0 2.026-0.907 2.026-2.026V17.733z" fill="#6d9985" data-fill-palette-color="accent"></path></g></svg></g></svg></g></svg></g></svg></g></svg></g></svg></g><defs></defs></svg><rect width="95.481" height="95.3674837" fill="none" stroke="none" visibility="hidden"></rect></g></svg></g></svg>